<svg width="36" height="36" viewBox="0 0 36 36" fill="none" xmlns="http://www.w3.org/2000/svg">
<rect x="0.5" y="0.5" width="35" height="35" rx="7.5" fill="#F6F6F6"/>
<rect x="0.5" y="0.5" width="35" height="35" rx="7.5" stroke="#EEEEEE"/>
<path d="M22.5834 18C25.1147 18 27.1667 20.052 27.1667 22.5833C27.1667 25.1146 25.1147 27.1667 22.5834 27.1667C20.0521 27.1667 18.0001 25.1146 18.0001 22.5833C18.0001 20.052 20.0521 18 22.5834 18ZM22.5834 19.666L22.5085 19.6727C22.3384 19.7036 22.2043 19.8377 22.1735 20.0078L22.1667 20.0827L22.1665 22.166L20.0815 22.1667L20.0066 22.1734C19.8365 22.2043 19.7024 22.3384 19.6715 22.5084L19.6648 22.5833L19.6715 22.6582C19.7024 22.8283 19.8365 22.9624 20.0066 22.9933L20.0815 23L22.1673 22.9994L22.1677 25.0862L22.1744 25.1611C22.2053 25.3312 22.3394 25.4653 22.5094 25.4962L22.5843 25.5029L22.6592 25.4962C22.8293 25.4653 22.9634 25.3312 22.9943 25.1611L23.001 25.0862L23.0006 22.9994L25.0872 23L25.1621 22.9933C25.3322 22.9624 25.4663 22.8283 25.4972 22.6582L25.5039 22.5833L25.4972 22.5084C25.4663 22.3384 25.3322 22.2043 25.1621 22.1734L25.0872 22.1667L22.9998 22.166L23.0001 20.0827L22.9934 20.0078C22.9625 19.8377 22.8284 19.7036 22.6583 19.6727L22.5834 19.666ZM19.8784 16.3333C20.5739 16.3333 21.1809 16.712 21.5046 17.2743C21.0601 17.364 20.636 17.508 20.2388 17.699C20.1375 17.6258 20.0129 17.5833 19.8784 17.5833H16.1267C15.7815 17.5833 15.5017 17.8632 15.5017 18.2083V21.7491C15.5017 22.9249 16.3131 23.9111 17.4064 24.1785C17.5504 24.6498 17.7582 25.094 18.0189 25.501L18.0026 25.5C15.931 25.5 14.2517 23.8207 14.2517 21.7491V18.2083C14.2517 17.1728 15.0912 16.3333 16.1267 16.3333H19.8784ZM14.1721 16.3336C13.8432 16.6764 13.6036 17.1055 13.4908 17.5836L11.5417 17.5833C11.1966 17.5833 10.9167 17.8632 10.9167 18.2083V20.499C10.9167 21.6501 11.85 22.5833 13.0011 22.5833C13.1678 22.5833 13.3299 22.5638 13.4852 22.5268C13.5558 22.9468 13.6847 23.3473 13.8625 23.72C13.5882 23.7942 13.2992 23.8333 13.0011 23.8333C11.1596 23.8333 9.66675 22.3405 9.66675 20.499V18.2083C9.66675 17.2159 10.4377 16.4036 11.4134 16.3377L11.5417 16.3333L14.1721 16.3336ZM24.4584 16.3333C25.4939 16.3333 26.3334 17.1728 26.3334 18.2083L26.3341 18.6753C25.3608 17.7409 24.0392 17.1667 22.5834 17.1667L22.3791 17.1704C22.2509 16.8576 22.064 16.5743 21.833 16.3336L24.4584 16.3333ZM23.4167 11.3333C24.5673 11.3333 25.5001 12.2661 25.5001 13.4167C25.5001 14.5673 24.5673 15.5 23.4167 15.5C22.2662 15.5 21.3334 14.5673 21.3334 13.4167C21.3334 12.2661 22.2662 11.3333 23.4167 11.3333ZM18.0001 10.5C19.3808 10.5 20.5001 11.6193 20.5001 13C20.5001 14.3807 19.3808 15.5 18.0001 15.5C16.6194 15.5 15.5001 14.3807 15.5001 13C15.5001 11.6193 16.6194 10.5 18.0001 10.5ZM12.5834 11.3333C13.734 11.3333 14.6667 12.2661 14.6667 13.4167C14.6667 14.5673 13.734 15.5 12.5834 15.5C11.4328 15.5 10.5001 14.5673 10.5001 13.4167C10.5001 12.2661 11.4328 11.3333 12.5834 11.3333ZM23.4167 12.5833C22.9565 12.5833 22.5834 12.9564 22.5834 13.4167C22.5834 13.8769 22.9565 14.25 23.4167 14.25C23.877 14.25 24.2501 13.8769 24.2501 13.4167C24.2501 12.9564 23.877 12.5833 23.4167 12.5833ZM18.0001 11.75C17.3097 11.75 16.7501 12.3096 16.7501 13C16.7501 13.6904 17.3097 14.25 18.0001 14.25C18.6904 14.25 19.2501 13.6904 19.2501 13C19.2501 12.3096 18.6904 11.75 18.0001 11.75ZM12.5834 12.5833C12.1232 12.5833 11.7501 12.9564 11.7501 13.4167C11.7501 13.8769 12.1232 14.25 12.5834 14.25C13.0437 14.25 13.4167 13.8769 13.4167 13.4167C13.4167 12.9564 13.0437 12.5833 12.5834 12.5833Z" fill="#04071E"/>
</svg>
