<svg width="36" height="36" viewBox="0 0 36 36" fill="none" xmlns="http://www.w3.org/2000/svg">
<rect x="0.5" y="0.5" width="35" height="35" rx="7.5" fill="#F6F6F6"/>
<rect x="0.5" y="0.5" width="35" height="35" rx="7.5" stroke="#EEEEEE"/>
<path fill-rule="evenodd" clip-rule="evenodd" d="M26.0916 26.0916C25.7666 26.4166 25.2333 26.4166 24.9083 26.0916L22.2083 23.3833C22.6416 23.0333 23.0333 22.6416 23.3833 22.2083L26.0916 24.9083C26.4166 25.2333 26.4166 25.7666 26.0916 26.0916Z" fill="#121212"/>
<path fill-rule="evenodd" clip-rule="evenodd" d="M17.3751 23.4167C20.7118 23.4167 23.4167 20.7118 23.4167 17.3751C23.4167 14.0384 20.7118 11.3334 17.3751 11.3334C14.0384 11.3334 11.3334 14.0384 11.3334 17.3751C11.3334 20.7118 14.0384 23.4167 17.3751 23.4167ZM17.3751 25.0834C21.6323 25.0834 25.0834 21.6323 25.0834 17.3751C25.0834 13.1179 21.6323 9.66675 17.3751 9.66675C13.1179 9.66675 9.66675 13.1179 9.66675 17.3751C9.66675 21.6323 13.1179 25.0834 17.3751 25.0834Z" fill="#121212"/>
</svg>
